<svg width="34" height="34" viewBox="0 0 34 34" fill="none" xmlns="http://www.w3.org/2000/svg">
<g id="Feed-Icon">
<path id="Feed-Icon-Off" fill-rule="evenodd" clip-rule="evenodd" d="M14.0412 9.43651C14.0414 9.22517 14.1449 9.02252 14.329 8.87311C14.5132 8.72371 14.7629 8.63978 15.0233 8.63978H28.768C28.8987 8.63747 29.0286 8.65636 29.1502 8.69536C29.2718 8.73435 29.3825 8.79265 29.4759 8.86685C29.5693 8.94104 29.6436 9.02963 29.6942 9.12742C29.7449 9.22521 29.771 9.33023 29.771 9.43632C29.771 9.54241 29.7449 9.64743 29.6942 9.74522C29.6436 9.84301 29.5693 9.9316 29.4759 10.0058C29.3825 10.08 29.2718 10.1383 29.1502 10.1773C29.0286 10.2163 28.8987 10.2352 28.768 10.2329H15.0233C14.8944 10.2329 14.7667 10.2124 14.6476 10.1724C14.5285 10.1324 14.4203 10.0737 14.3291 9.99978C14.2379 9.92583 14.1655 9.83802 14.1161 9.74138C14.0667 9.64473 14.0413 9.54114 14.0412 9.43651ZM14.0412 13.4054C14.0413 13.3008 14.0667 13.1972 14.1161 13.1006C14.1655 13.0039 14.2379 12.9161 14.3291 12.8422C14.4203 12.7682 14.5285 12.7096 14.6476 12.6696C14.7667 12.6296 14.8944 12.609 15.0233 12.6091H28.768C29.0283 12.6091 29.2778 12.693 29.4618 12.8423C29.6458 12.9917 29.7492 13.1942 29.7492 13.4054C29.7492 13.6167 29.6458 13.8192 29.4618 13.9686C29.2778 14.1179 29.0283 14.2018 28.768 14.2018H15.0233C14.8944 14.2018 14.7667 14.1813 14.6476 14.1413C14.5285 14.1013 14.4203 14.0427 14.3291 13.9687C14.2379 13.8948 14.1655 13.807 14.1161 13.7103C14.0667 13.6137 14.0413 13.5101 14.0412 13.4054ZM29.7496 29.2778C29.7497 29.3824 29.7244 29.4861 29.6751 29.5828C29.6258 29.6795 29.5535 29.7674 29.4623 29.8414C29.3712 29.9154 29.2629 29.9741 29.1438 30.0142C29.0247 30.0543 28.897 30.0749 28.768 30.0749H15.0233C14.8926 30.0772 14.7626 30.0583 14.641 30.0193C14.5194 29.9803 14.4086 29.9219 14.3151 29.8477C14.2216 29.7735 14.1474 29.6848 14.0967 29.587C14.046 29.4892 14.0199 29.3841 14.0199 29.278C14.0199 29.1718 14.046 29.0668 14.0967 28.9689C14.1474 28.8711 14.2216 28.7825 14.3151 28.7082C14.4086 28.634 14.5194 28.5757 14.641 28.5367C14.7626 28.4976 14.8926 28.4787 15.0233 28.481H28.768C29.0284 28.481 29.2781 28.565 29.4621 28.7144C29.6462 28.8638 29.7496 29.0665 29.7496 29.2778ZM14.0412 25.3111C14.0412 25.2065 14.0666 25.1028 14.116 25.0061C14.1654 24.9094 14.2377 24.8216 14.3289 24.7476C14.4201 24.6736 14.5284 24.6149 14.6475 24.5749C14.7667 24.5349 14.8944 24.5143 15.0233 24.5144H28.768C29.0284 24.5144 29.2781 24.5983 29.4621 24.7477C29.6462 24.8972 29.7496 25.0998 29.7496 25.3111C29.7496 25.5224 29.6462 25.7251 29.4621 25.8745C29.2781 26.0239 29.0284 26.1078 28.768 26.1078H15.0233C14.7629 26.1078 14.5132 26.0239 14.329 25.8745C14.1449 25.7251 14.0414 25.5225 14.0412 25.3111ZM14.0412 21.3422C14.0414 21.1308 14.1449 20.9282 14.329 20.7788C14.5132 20.6294 14.7629 20.5454 15.0233 20.5454H28.768C29.0249 20.55 29.2693 20.636 29.4489 20.785C29.6286 20.934 29.7292 21.1342 29.7292 21.3427C29.7292 21.5512 29.6286 21.7515 29.4489 21.9005C29.2693 22.0495 29.0249 22.1355 28.768 22.14H15.0233C14.7628 22.1397 14.5131 22.0556 14.329 21.906C14.1448 21.7564 14.0414 21.5536 14.0412 21.3422ZM14.0412 17.3755C14.0411 17.2708 14.0664 17.167 14.1157 17.0702C14.165 16.9734 14.2373 16.8855 14.3285 16.8114C14.4197 16.7373 14.5281 16.6785 14.6473 16.6384C14.7665 16.5983 14.8943 16.5776 15.0233 16.5776H28.768C29.0249 16.5822 29.2693 16.6682 29.4489 16.8172C29.6286 16.9662 29.7292 17.1664 29.7292 17.3749C29.7292 17.5834 29.6286 17.7837 29.4489 17.9327C29.2693 18.0817 29.0249 18.1677 28.768 18.1722H15.0233C14.7629 18.1722 14.5132 18.0883 14.329 17.9389C14.1449 17.7895 14.0414 17.5869 14.0412 17.3755ZM32.0335 6.84118C32.0339 6.7005 31.9655 6.56545 31.8433 6.46566C31.7212 6.36587 31.5552 6.30949 31.3819 6.30889H12.4183L11.8867 6.52196C11.8021 6.6135 11.7564 6.72485 11.7564 6.83929V31.8746C11.7565 32.0155 11.8255 32.1505 11.9482 32.2501C12.0709 32.3497 12.2373 32.4057 12.4108 32.4058H31.3819C31.5549 32.405 31.7205 32.3487 31.8426 32.2492C31.9647 32.1497 32.0333 32.015 32.0335 31.8746V6.84118ZM2.61807 27.6911H9.79274V6.84118C9.79363 6.36107 9.99459 5.89533 10.3629 5.51967C10.7313 5.14401 11.2454 4.88054 11.8216 4.77209L19.706 1.59347H2.61807C2.44495 1.59436 2.27929 1.65079 2.15722 1.75043C2.03515 1.85008 1.96658 1.98486 1.96646 2.12538V27.1584C1.96621 27.2991 2.03464 27.4342 2.15676 27.534C2.27888 27.6338 2.44475 27.6903 2.61807 27.6911ZM16.3726 4.71618L22.2441 2.35053V4.71618H16.3726ZM21.5897 0H2.61807C1.9239 0.000500161 1.25834 0.224544 0.767495 0.622951C0.276645 1.02136 0.000616215 1.56157 0 2.125V27.1584C0.000862149 27.7218 0.27697 28.2619 0.767767 28.6603C1.25856 29.0586 1.92398 29.2827 2.61807 29.2834H9.79274V31.8746C9.79336 32.4381 10.0694 32.9783 10.5602 33.3768C11.051 33.7753 11.7166 33.9994 12.4108 34H31.3819C32.0761 33.9994 32.7415 33.7753 33.2324 33.3769C33.7232 32.9786 33.9993 32.4384 34 31.875V6.84118C33.9991 6.27781 33.723 5.73771 33.2322 5.33935C32.7414 4.94099 32.076 4.71688 31.3819 4.71618H24.2077V2.12538C24.2071 1.56191 23.9311 1.02166 23.4403 0.623195C22.9494 0.224728 22.2839 0.000600169 21.5897 0Z" fill="white" fill-opacity="0.6"/>
</g>
</svg>
