<svg width="148" height="140" viewBox="0 0 148 140" fill="none" xmlns="http://www.w3.org/2000/svg">
<path d="M0.758523 137V128.273H2.60369V131.874H6.34943V128.273H8.19034V137H6.34943V133.395H2.60369V137H0.758523ZM17.7315 132.636C17.7315 133.588 17.5511 134.398 17.1903 135.065C16.8324 135.733 16.3438 136.243 15.7244 136.595C15.108 136.945 14.4148 137.119 13.6449 137.119C12.8693 137.119 12.1733 136.943 11.5568 136.591C10.9403 136.239 10.4531 135.729 10.0952 135.061C9.73722 134.393 9.55824 133.585 9.55824 132.636C9.55824 131.685 9.73722 130.875 10.0952 130.207C10.4531 129.54 10.9403 129.031 11.5568 128.682C12.1733 128.33 12.8693 128.153 13.6449 128.153C14.4148 128.153 15.108 128.33 15.7244 128.682C16.3438 129.031 16.8324 129.54 17.1903 130.207C17.5511 130.875 17.7315 131.685 17.7315 132.636ZM15.8608 132.636C15.8608 132.02 15.7685 131.5 15.5838 131.077C15.402 130.653 15.1449 130.332 14.8125 130.114C14.4801 129.895 14.0909 129.786 13.6449 129.786C13.1989 129.786 12.8097 129.895 12.4773 130.114C12.1449 130.332 11.8864 130.653 11.7017 131.077C11.5199 131.5 11.429 132.02 11.429 132.636C11.429 133.253 11.5199 133.773 11.7017 134.196C11.8864 134.619 12.1449 134.94 12.4773 135.159C12.8097 135.378 13.1989 135.487 13.6449 135.487C14.0909 135.487 14.4801 135.378 14.8125 135.159C15.1449 134.94 15.402 134.619 15.5838 134.196C15.7685 133.773 15.8608 133.253 15.8608 132.636ZM19.0984 137V128.273H20.9435V135.479H24.685V137H19.0984ZM29.0007 137H25.907V128.273H29.0263C29.9041 128.273 30.6598 128.447 31.2933 128.797C31.9268 129.143 32.4141 129.642 32.755 130.293C33.0987 130.943 33.2706 131.722 33.2706 132.628C33.2706 133.537 33.0987 134.318 32.755 134.972C32.4141 135.625 31.924 136.126 31.2848 136.476C30.6484 136.825 29.8871 137 29.0007 137ZM27.7521 135.419H28.924C29.4695 135.419 29.9283 135.322 30.3004 135.129C30.6754 134.933 30.9567 134.631 31.1442 134.222C31.3345 133.81 31.4297 133.278 31.4297 132.628C31.4297 131.983 31.3345 131.456 31.1442 131.047C30.9567 130.638 30.6768 130.337 30.3047 130.143C29.9325 129.95 29.4737 129.854 28.9283 129.854H27.7521V135.419ZM37.0824 129.794V128.273H44.25V129.794H41.5781V137H39.7543V129.794H37.0824ZM53.0518 132.636C53.0518 133.588 52.8714 134.398 52.5107 135.065C52.1527 135.733 51.6641 136.243 51.0447 136.595C50.4283 136.945 49.7351 137.119 48.9652 137.119C48.1896 137.119 47.4936 136.943 46.8771 136.591C46.2607 136.239 45.7734 135.729 45.4155 135.061C45.0575 134.393 44.8786 133.585 44.8786 132.636C44.8786 131.685 45.0575 130.875 45.4155 130.207C45.7734 129.54 46.2607 129.031 46.8771 128.682C47.4936 128.33 48.1896 128.153 48.9652 128.153C49.7351 128.153 50.4283 128.33 51.0447 128.682C51.6641 129.031 52.1527 129.54 52.5107 130.207C52.8714 130.875 53.0518 131.685 53.0518 132.636ZM51.1811 132.636C51.1811 132.02 51.0888 131.5 50.9041 131.077C50.7223 130.653 50.4652 130.332 50.1328 130.114C49.8004 129.895 49.4112 129.786 48.9652 129.786C48.5192 129.786 48.13 129.895 47.7976 130.114C47.4652 130.332 47.2067 130.653 47.022 131.077C46.8402 131.5 46.7493 132.02 46.7493 132.636C46.7493 133.253 46.8402 133.773 47.022 134.196C47.2067 134.619 47.4652 134.94 47.7976 135.159C48.13 135.378 48.5192 135.487 48.9652 135.487C49.4112 135.487 49.8004 135.378 50.1328 135.159C50.4652 134.94 50.7223 134.619 50.9041 134.196C51.0888 133.773 51.1811 133.253 51.1811 132.636ZM57.196 137V128.273H59.0412V135.479H62.7827V137H57.196ZM71.6847 132.636C71.6847 133.588 71.5043 134.398 71.1435 135.065C70.7855 135.733 70.2969 136.243 69.6776 136.595C69.0611 136.945 68.3679 137.119 67.598 137.119C66.8224 137.119 66.1264 136.943 65.5099 136.591C64.8935 136.239 64.4063 135.729 64.0483 135.061C63.6903 134.393 63.5114 133.585 63.5114 132.636C63.5114 131.685 63.6903 130.875 64.0483 130.207C64.4063 129.54 64.8935 129.031 65.5099 128.682C66.1264 128.33 66.8224 128.153 67.598 128.153C68.3679 128.153 69.0611 128.33 69.6776 128.682C70.2969 129.031 70.7855 129.54 71.1435 130.207C71.5043 130.875 71.6847 131.685 71.6847 132.636ZM69.8139 132.636C69.8139 132.02 69.7216 131.5 69.5369 131.077C69.3551 130.653 69.098 130.332 68.7656 130.114C68.4332 129.895 68.044 129.786 67.598 129.786C67.152 129.786 66.7628 129.895 66.4304 130.114C66.098 130.332 65.8395 130.653 65.6548 131.077C65.473 131.5 65.3821 132.02 65.3821 132.636C65.3821 133.253 65.473 133.773 65.6548 134.196C65.8395 134.619 66.098 134.94 66.4304 135.159C66.7628 135.378 67.152 135.487 67.598 135.487C68.044 135.487 68.4332 135.378 68.7656 135.159C69.098 134.94 69.3551 134.619 69.5369 134.196C69.7216 133.773 69.8139 133.253 69.8139 132.636ZM78.8384 131.094C78.7788 130.886 78.695 130.703 78.587 130.544C78.479 130.382 78.3469 130.246 78.1907 130.135C78.0373 130.021 77.8612 129.935 77.6623 129.875C77.4663 129.815 77.2489 129.786 77.0103 129.786C76.5643 129.786 76.1722 129.896 75.8342 130.118C75.4989 130.339 75.2376 130.662 75.0501 131.085C74.8626 131.506 74.7688 132.02 74.7688 132.628C74.7688 133.236 74.8612 133.753 75.0458 134.179C75.2305 134.605 75.4918 134.93 75.8299 135.155C76.168 135.376 76.5671 135.487 77.0273 135.487C77.445 135.487 77.8015 135.413 78.0969 135.266C78.3952 135.115 78.6225 134.903 78.7788 134.631C78.9379 134.358 79.0174 134.036 79.0174 133.663L79.3924 133.719H77.1424V132.33H80.7944V133.429C80.7944 134.196 80.6325 134.855 80.3086 135.406C79.9847 135.955 79.5387 136.378 78.9705 136.676C78.4023 136.972 77.7518 137.119 77.0188 137.119C76.2006 137.119 75.4819 136.939 74.8626 136.578C74.2433 136.214 73.7603 135.699 73.4137 135.031C73.07 134.361 72.8981 133.565 72.8981 132.645C72.8981 131.937 73.0004 131.307 73.2049 130.753C73.4123 130.196 73.7021 129.724 74.0742 129.338C74.4464 128.952 74.8796 128.658 75.3739 128.456C75.8683 128.254 76.4038 128.153 76.9805 128.153C77.4748 128.153 77.935 128.226 78.3612 128.371C78.7873 128.513 79.1651 128.714 79.4947 128.976C79.8271 129.237 80.0984 129.548 80.3086 129.909C80.5188 130.267 80.6538 130.662 80.7134 131.094H78.8384ZM86.9222 137L84.4251 128.273H86.4407L87.8853 134.337H87.9577L89.5515 128.273H91.2773L92.8668 134.349H92.9435L94.3881 128.273H96.4038L93.9066 137H92.1083L90.4464 131.294H90.3782L88.7205 137H86.9222ZM104.919 132.636C104.919 133.588 104.739 134.398 104.378 135.065C104.02 135.733 103.531 136.243 102.912 136.595C102.295 136.945 101.602 137.119 100.832 137.119C100.057 137.119 99.3608 136.943 98.7443 136.591C98.1278 136.239 97.6406 135.729 97.2827 135.061C96.9247 134.393 96.7457 133.585 96.7457 132.636C96.7457 131.685 96.9247 130.875 97.2827 130.207C97.6406 129.54 98.1278 129.031 98.7443 128.682C99.3608 128.33 100.057 128.153 100.832 128.153C101.602 128.153 102.295 128.33 102.912 128.682C103.531 129.031 104.02 129.54 104.378 130.207C104.739 130.875 104.919 131.685 104.919 132.636ZM103.048 132.636C103.048 132.02 102.956 131.5 102.771 131.077C102.589 130.653 102.332 130.332 102 130.114C101.668 129.895 101.278 129.786 100.832 129.786C100.386 129.786 99.9972 129.895 99.6648 130.114C99.3324 130.332 99.0739 130.653 98.8892 131.077C98.7074 131.5 98.6165 132.02 98.6165 132.636C98.6165 133.253 98.7074 133.773 98.8892 134.196C99.0739 134.619 99.3324 134.94 99.6648 135.159C99.9972 135.378 100.386 135.487 100.832 135.487C101.278 135.487 101.668 135.378 102 135.159C102.332 134.94 102.589 134.619 102.771 134.196C102.956 133.773 103.048 133.253 103.048 132.636ZM106.286 137V128.273H109.729C110.388 128.273 110.951 128.391 111.417 128.626C111.885 128.859 112.242 129.19 112.486 129.619C112.733 130.045 112.857 130.547 112.857 131.124C112.857 131.703 112.732 132.202 112.482 132.619C112.232 133.034 111.87 133.352 111.395 133.574C110.924 133.795 110.353 133.906 109.682 133.906H107.377V132.423H109.384C109.736 132.423 110.029 132.375 110.262 132.278C110.495 132.182 110.668 132.037 110.782 131.844C110.898 131.651 110.956 131.411 110.956 131.124C110.956 130.834 110.898 130.589 110.782 130.391C110.668 130.192 110.493 130.041 110.257 129.939C110.025 129.834 109.73 129.781 109.375 129.781H108.131V137H106.286ZM110.999 133.028L113.168 137H111.131L109.009 133.028H110.999ZM114.161 137V128.273H116.006V132.121H116.121L119.262 128.273H121.473L118.235 132.18L121.512 137H119.304L116.914 133.412L116.006 134.52V137H114.161ZM129.962 132.636C129.962 133.588 129.782 134.398 129.421 135.065C129.063 135.733 128.574 136.243 127.955 136.595C127.338 136.945 126.645 137.119 125.875 137.119C125.1 137.119 124.404 136.943 123.787 136.591C123.171 136.239 122.684 135.729 122.326 135.061C121.968 134.393 121.789 133.585 121.789 132.636C121.789 131.685 121.968 130.875 122.326 130.207C122.684 129.54 123.171 129.031 123.787 128.682C124.404 128.33 125.1 128.153 125.875 128.153C126.645 128.153 127.338 128.33 127.955 128.682C128.574 129.031 129.063 129.54 129.421 130.207C129.782 130.875 129.962 131.685 129.962 132.636ZM128.091 132.636C128.091 132.02 127.999 131.5 127.814 131.077C127.632 130.653 127.375 130.332 127.043 130.114C126.711 129.895 126.321 129.786 125.875 129.786C125.429 129.786 125.04 129.895 124.708 130.114C124.375 130.332 124.117 130.653 123.932 131.077C123.75 131.5 123.659 132.02 123.659 132.636C123.659 133.253 123.75 133.773 123.932 134.196C124.117 134.619 124.375 134.94 124.708 135.159C125.04 135.378 125.429 135.487 125.875 135.487C126.321 135.487 126.711 135.378 127.043 135.159C127.375 134.94 127.632 134.619 127.814 134.196C127.999 133.773 128.091 133.253 128.091 132.636ZM136.719 128.273H138.565V133.94C138.565 134.577 138.413 135.134 138.109 135.611C137.808 136.088 137.386 136.46 136.843 136.727C136.3 136.991 135.668 137.124 134.947 137.124C134.222 137.124 133.589 136.991 133.046 136.727C132.504 136.46 132.082 136.088 131.781 135.611C131.479 135.134 131.329 134.577 131.329 133.94V128.273H133.174V133.783C133.174 134.115 133.246 134.411 133.391 134.669C133.539 134.928 133.746 135.131 134.013 135.278C134.281 135.426 134.592 135.5 134.947 135.5C135.305 135.5 135.616 135.426 135.88 135.278C136.147 135.131 136.353 134.928 136.498 134.669C136.646 134.411 136.719 134.115 136.719 133.783V128.273ZM139.75 129.794V128.273H146.918V129.794H144.246V137H142.422V129.794H139.75Z" fill="#C7C7C7"/>
<g filter="url(#filter0_d_75_102)">
<circle cx="74" cy="60" r="55" fill="#B62727"/>
</g>
<path d="M73.806 30.838C77.0711 30.838 79.718 27.7246 79.718 23.884C79.718 20.0434 77.0711 16.93 73.806 16.93C70.5409 16.93 67.894 20.0434 67.894 23.884C67.894 27.7246 70.5409 30.838 73.806 30.838Z" fill="black"/>
<path d="M109.728 57.033H106.498C105.557 57.033 104.794 57.796 104.794 58.737V65.74C104.694 65.719 104.59 65.707 104.484 65.707H95.366C94.952 63.099 93.892 59.061 92.034 52.825C86.554 34.44 85.717 33.623 74.178 33.623C74.119 33.623 74.06 33.623 74.001 33.623C73.942 33.623 73.884 33.623 73.825 33.623C62.286 33.623 61.448 34.44 55.969 52.825C54.11 59.062 53.05 63.1 52.637 65.707H43.209V58.737C43.209 57.796 42.446 57.033 41.505 57.033H38.275C37.334 57.033 36.571 57.796 36.571 58.737V74.95C36.571 75.891 37.334 76.654 38.275 76.654H41.505C42.446 76.654 43.209 75.891 43.209 74.95V68.708H52.501C52.628 69.436 52.929 69.844 53.393 70.039C54.921 70.681 55.994 70.24 56.707 68.708H64.417C63.245 75.506 61.626 84.147 59.937 100.52C59.644 103.363 64.78 104.175 65.642 100.04C69.633 80.903 71.655 70.025 74.002 70.025C76.349 70.025 78.371 80.903 82.362 100.04C83.224 104.175 88.361 103.363 88.067 100.52C86.379 84.146 84.76 75.505 83.587 68.708H91.297C92.01 70.241 93.083 70.682 94.611 70.039C95.075 69.844 95.376 69.435 95.503 68.708H104.485C104.591 68.708 104.695 68.696 104.795 68.675V74.95C104.795 75.891 105.558 76.654 106.499 76.654H109.729C110.67 76.654 111.433 75.891 111.433 74.95V58.738C111.432 57.796 110.669 57.033 109.728 57.033ZM57.793 65.708C60.952 56.535 66.219 40.172 66.219 49.63C66.219 56.296 65.724 60.708 64.918 65.708H57.793ZM81.781 49.63C81.781 40.171 87.048 56.535 90.207 65.708H83.082C82.276 60.709 81.781 56.296 81.781 49.63Z" fill="black"/>
<defs>
<filter id="filter0_d_75_102" x="14" y="0" width="120" height="120" filterUnits="userSpaceOnUse" color-interpolation-filters="sRGB">
<feFlood flood-opacity="0" result="BackgroundImageFix"/>
<feColorMatrix in="SourceAlpha" type="matrix" values="0 0 0 0 0 0 0 0 0 0 0 0 0 0 0 0 0 0 127 0" result="hardAlpha"/>
<feMorphology radius="1" operator="dilate" in="SourceAlpha" result="effect1_dropShadow_75_102"/>
<feOffset/>
<feGaussianBlur stdDeviation="2"/>
<feComposite in2="hardAlpha" operator="out"/>
<feColorMatrix type="matrix" values="0 0 0 0 0 0 0 0 0 0 0 0 0 0 0 0 0 0 0.25 0"/>
<feBlend mode="normal" in2="BackgroundImageFix" result="effect1_dropShadow_75_102"/>
<feBlend mode="normal" in="SourceGraphic" in2="effect1_dropShadow_75_102" result="shape"/>
</filter>
</defs>
</svg>
