<svg width="210" height="96" viewBox="0 0 210 96" fill="none" xmlns="http://www.w3.org/2000/svg">
<path d="M0 23.875V53.125C0 55.8209 2.235 58 5 58H10V19H5C2.235 19 0 21.1791 0 23.875Z" fill="black"/>
<path d="M35 4H20C17.235 4 15 6.20307 15 8.92857V68.0714C15 70.7969 17.235 73 20 73H35C37.77 73 40 70.7969 40 68.0714V8.92857C40 6.20307 37.765 4 35 4Z" fill="black"/>
<path d="M205 19H200V58H205C207.765 58 210 55.8209 210 53.125V23.875C210 21.1791 207.76 19 205 19Z" fill="black"/>
<path d="M190 4H175C172.23 4 170 6.20307 170 8.92857V68.0714C170 70.7969 172.23 73 175 73H190C192.765 73 195 70.7969 195 68.0714V8.92857C195 6.20307 192.76 4 190 4Z" fill="black"/>
<path d="M164 27H46V49H164V27Z" fill="black"/>
<path d="M54.2415 44L51.2386 33.8182H54.321L55.7131 40.0824H55.7926L57.4432 33.8182H59.8693L61.5199 40.1023H61.5994L62.9915 33.8182H66.0739L63.071 44H60.4261L58.696 38.3125H58.6165L56.8864 44H54.2415ZM76.1898 38.9091C76.1898 40.0426 75.9694 40.9988 75.5286 41.7777C75.0878 42.5533 74.4928 43.1416 73.7438 43.5426C72.9947 43.9403 72.1595 44.1392 71.2381 44.1392C70.3101 44.1392 69.4715 43.9387 68.7225 43.5376C67.9767 43.1333 67.3835 42.5433 66.9426 41.7678C66.5051 40.9889 66.2864 40.036 66.2864 38.9091C66.2864 37.7756 66.5051 36.821 66.9426 36.0455C67.3835 35.2666 67.9767 34.6783 68.7225 34.2805C69.4715 33.8795 70.3101 33.679 71.2381 33.679C72.1595 33.679 72.9947 33.8795 73.7438 34.2805C74.4928 34.6783 75.0878 35.2666 75.5286 36.0455C75.9694 36.821 76.1898 37.7756 76.1898 38.9091ZM73.3461 38.9091C73.3461 38.2992 73.2649 37.7855 73.1025 37.3679C72.9434 36.947 72.7064 36.6288 72.3915 36.4134C72.08 36.1946 71.6955 36.0852 71.2381 36.0852C70.7807 36.0852 70.3946 36.1946 70.0797 36.4134C69.7682 36.6288 69.5312 36.947 69.3688 37.3679C69.2097 37.7855 69.1301 38.2992 69.1301 38.9091C69.1301 39.5189 69.2097 40.0343 69.3688 40.4553C69.5312 40.8729 69.7682 41.1911 70.0797 41.4098C70.3946 41.6252 70.7807 41.733 71.2381 41.733C71.6955 41.733 72.08 41.6252 72.3915 41.4098C72.7064 41.1911 72.9434 40.8729 73.1025 40.4553C73.2649 40.0343 73.3461 39.5189 73.3461 38.9091ZM77.4688 44V33.8182H81.8636C82.6193 33.8182 83.2805 33.9557 83.8473 34.2308C84.4141 34.5059 84.8549 34.902 85.1697 35.419C85.4846 35.9361 85.642 36.5559 85.642 37.2784C85.642 38.0076 85.4796 38.6224 85.1548 39.1229C84.8333 39.6233 84.3809 40.0012 83.7976 40.2564C83.2176 40.5116 82.5398 40.6392 81.7642 40.6392H79.1392V38.4915H81.2074C81.5322 38.4915 81.8089 38.4517 82.0376 38.3722C82.2696 38.2893 82.447 38.1584 82.5696 37.9794C82.6955 37.8004 82.7585 37.5668 82.7585 37.2784C82.7585 36.9867 82.6955 36.7498 82.5696 36.5675C82.447 36.3819 82.2696 36.246 82.0376 36.1598C81.8089 36.0703 81.5322 36.0256 81.2074 36.0256H80.233V44H77.4688ZM83.4347 39.3267L85.9801 44H82.9773L80.4915 39.3267H83.4347ZM86.8203 44V33.8182H89.5845V37.9347H89.7237L92.7862 33.8182H96.0078L92.5675 38.3523L96.0874 44H92.7862L90.4993 40.1818L89.5845 41.375V44H86.8203ZM106.049 38.9091C106.049 40.0426 105.829 40.9988 105.388 41.7777C104.947 42.5533 104.352 43.1416 103.603 43.5426C102.854 43.9403 102.019 44.1392 101.097 44.1392C100.169 44.1392 99.3309 43.9387 98.5819 43.5376C97.8361 43.1333 97.2428 42.5433 96.802 41.7678C96.3645 40.9889 96.1458 40.036 96.1458 38.9091C96.1458 37.7756 96.3645 36.821 96.802 36.0455C97.2428 35.2666 97.8361 34.6783 98.5819 34.2805C99.3309 33.8795 100.169 33.679 101.097 33.679C102.019 33.679 102.854 33.8795 103.603 34.2805C104.352 34.6783 104.947 35.2666 105.388 36.0455C105.829 36.821 106.049 37.7756 106.049 38.9091ZM103.205 38.9091C103.205 38.2992 103.124 37.7855 102.962 37.3679C102.803 36.947 102.566 36.6288 102.251 36.4134C101.939 36.1946 101.555 36.0852 101.097 36.0852C100.64 36.0852 100.254 36.1946 99.9391 36.4134C99.6275 36.6288 99.3906 36.947 99.2282 37.3679C99.0691 37.7855 98.9895 38.2992 98.9895 38.9091C98.9895 39.5189 99.0691 40.0343 99.2282 40.4553C99.3906 40.8729 99.6275 41.1911 99.9391 41.4098C100.254 41.6252 100.64 41.733 101.097 41.733C101.555 41.733 101.939 41.6252 102.251 41.4098C102.566 41.1911 102.803 40.8729 102.962 40.4553C103.124 40.0343 103.205 39.5189 103.205 38.9091ZM113.354 33.8182H116.118V40.3409C116.118 41.1165 115.932 41.7876 115.561 42.3544C115.193 42.9179 114.679 43.3537 114.02 43.6619C113.36 43.9669 112.595 44.1193 111.723 44.1193C110.845 44.1193 110.076 43.9669 109.416 43.6619C108.757 43.3537 108.243 42.9179 107.875 42.3544C107.51 41.7876 107.328 41.1165 107.328 40.3409V33.8182H110.092V40.1023C110.092 40.4171 110.162 40.6989 110.301 40.9474C110.44 41.1927 110.633 41.3849 110.878 41.5241C111.126 41.6634 111.408 41.733 111.723 41.733C112.041 41.733 112.323 41.6634 112.568 41.5241C112.813 41.3849 113.006 41.1927 113.145 40.9474C113.284 40.6989 113.354 40.4171 113.354 40.1023V33.8182ZM117.153 36.0455V33.8182H126.003V36.0455H122.94V44H120.216V36.0455H117.153ZM132.477 44H129.494L132.855 33.8182H136.633L139.994 44H137.011L134.784 36.6222H134.704L132.477 44ZM131.92 39.983H137.528V42.0511H131.92V39.983ZM140.975 44V33.8182H145.369C146.125 33.8182 146.786 33.9673 147.353 34.2656C147.92 34.5639 148.361 34.9832 148.676 35.5234C148.99 36.0637 149.148 36.6951 149.148 37.4176C149.148 38.1468 148.985 38.7782 148.661 39.3118C148.339 39.8454 147.887 40.2564 147.303 40.5447C146.723 40.8331 146.046 40.9773 145.27 40.9773H142.645V38.8295H144.713C145.038 38.8295 145.315 38.7732 145.544 38.6605C145.776 38.5445 145.953 38.3804 146.075 38.1683C146.201 37.9562 146.264 37.706 146.264 37.4176C146.264 37.1259 146.201 36.8774 146.075 36.6719C145.953 36.4631 145.776 36.304 145.544 36.1946C145.315 36.0819 145.038 36.0256 144.713 36.0256H143.739V44H140.975ZM150.162 44V33.8182H154.557C155.313 33.8182 155.974 33.9673 156.541 34.2656C157.107 34.5639 157.548 34.9832 157.863 35.5234C158.178 36.0637 158.335 36.6951 158.335 37.4176C158.335 38.1468 158.173 38.7782 157.848 39.3118C157.527 39.8454 157.074 40.2564 156.491 40.5447C155.911 40.8331 155.233 40.9773 154.458 40.9773H151.833V38.8295H153.901C154.226 38.8295 154.502 38.7732 154.731 38.6605C154.963 38.5445 155.14 38.3804 155.263 38.1683C155.389 37.9562 155.452 37.706 155.452 37.4176C155.452 37.1259 155.389 36.8774 155.263 36.6719C155.14 36.4631 154.963 36.304 154.731 36.1946C154.502 36.0819 154.226 36.0256 153.901 36.0256H152.926V44H150.162Z" fill="white"/>
</svg>
