<svg width="34" height="34" viewBox="0 0 34 34" fill="none" xmlns="http://www.w3.org/2000/svg">
<path d="M2.37209 34H9.52775C9.83926 34 10.1477 33.937 10.4355 33.8147C10.7233 33.6923 10.9849 33.5129 11.2051 33.2867C11.4254 33.0606 11.6001 32.7921 11.7193 32.4966C11.8385 32.2011 11.8999 31.8844 11.8998 31.5645V25.2729C11.8998 23.8841 12.4372 22.5522 13.3936 21.5701C14.3501 20.5881 15.6474 20.0364 17 20.0364C18.3526 20.0364 19.6499 20.5881 20.6064 21.5701C21.5628 22.5522 22.1002 23.8841 22.1002 25.2729V31.5645C22.1001 31.8844 22.1615 32.2011 22.2807 32.4966C22.3999 32.7921 22.5746 33.0606 22.7949 33.2867C23.0151 33.5129 23.2767 33.6923 23.5645 33.8147C23.8523 33.937 24.1607 34 24.4723 34H31.6279C32.257 34 32.8604 33.7434 33.3052 33.2867C33.7501 32.8299 34 32.2104 34 31.5645V14.2007C34 13.6651 33.88 13.1367 33.6492 12.6564C33.4184 12.1761 33.0831 11.7567 32.6692 11.4308L19.0694 0.720952C18.4756 0.253409 17.7483 0 17 0C16.2517 0 15.5244 0.253409 14.9306 0.720952L1.33082 11.4308C0.916901 11.7567 0.581578 12.1761 0.350806 12.6564C0.120034 13.1367 1.6069e-06 13.6651 0 14.2007V31.5645C0 32.2104 0.249916 32.8299 0.69477 33.2867C1.13962 33.7434 1.74297 34 2.37209 34Z" fill="white" fill-opacity="0.9"/>
</svg>
