<svg width="34" height="34" viewBox="0 0 34 34" fill="none" xmlns="http://www.w3.org/2000/svg">
<g id="Me-Icon">
<path id="Me-Icon-Off" d="M17 20.9007C18.0703 20.9008 19.1166 20.5836 20.0065 19.9891C20.8965 19.3947 21.5901 18.5498 21.9997 17.5613C22.4093 16.5728 22.5165 15.485 22.3078 14.4356C22.099 13.3861 21.5836 12.4222 20.8268 11.6656C20.07 10.909 19.1057 10.3937 18.056 10.185C17.0063 9.97628 15.9182 10.0834 14.9294 10.493C13.9406 10.9025 13.0954 11.5959 12.5009 12.4856C11.9063 13.3753 11.589 14.4213 11.589 15.4913C11.5907 16.9254 12.1613 18.3004 13.1757 19.3145C14.1901 20.3286 15.5654 20.8991 17 20.9007ZM17 11.5713C17.7755 11.5713 18.5336 11.8012 19.1784 12.2319C19.8233 12.6627 20.3258 13.2749 20.6226 13.9912C20.9194 14.7074 20.9971 15.4956 20.8458 16.256C20.6945 17.0164 20.321 17.7149 19.7726 18.2631C19.2243 18.8114 18.5256 19.1847 17.765 19.336C17.0043 19.4872 16.2159 19.4096 15.4995 19.1129C14.783 18.8162 14.1706 18.3138 13.7397 17.6691C13.3089 17.0245 13.0789 16.2666 13.0789 15.4913C13.0801 14.452 13.4936 13.4556 14.2287 12.7208C14.9638 11.9859 15.9604 11.5725 17 11.5713ZM34 17.0048C34.0016 14.1389 33.2783 11.3191 31.8972 8.80767C30.5161 6.29624 28.5222 4.17475 26.1009 2.64049C23.6795 1.10623 20.9094 0.209031 18.0481 0.0323353C15.1868 -0.14436 12.3273 0.405185 9.73551 1.62986C7.14369 2.85454 4.90376 4.71458 3.22402 7.03699C1.54427 9.35941 0.479274 12.0688 0.128065 14.9131C-0.223144 17.7574 0.150843 20.6444 1.21525 23.3054C2.27965 25.9665 3.9999 28.3153 6.21601 30.1333C6.26687 30.1888 6.32588 30.2364 6.39104 30.2742C9.40079 32.6858 13.1428 34 17 34C20.8572 34 24.5992 32.6858 27.609 30.2742C27.674 30.2363 27.7329 30.1888 27.7836 30.1333C29.7272 28.5414 31.293 26.538 32.368 24.2676C33.443 21.9973 34.0004 19.5167 34 17.0048ZM1.4887 17.0048C1.4868 14.4242 2.12913 11.884 3.35747 9.61429C4.58581 7.34461 6.36132 5.41727 8.52306 4.00698C10.6848 2.59668 13.1644 1.74803 15.7372 1.53793C18.3099 1.32784 20.8944 1.76295 23.2565 2.80383C25.6185 3.84471 27.6833 5.45844 29.2638 7.49875C30.8443 9.53907 31.8905 11.9414 32.3075 14.4881C32.7246 17.0348 32.4993 19.6453 31.652 22.0829C30.8048 24.5206 29.3625 26.7083 27.4558 28.4478C26.4014 26.6066 24.8793 25.0765 23.0435 24.0124C21.2076 22.9482 19.1231 22.3878 17.001 22.3878C14.8788 22.3878 12.7943 22.9482 10.9585 24.0124C9.12258 25.0765 7.60047 26.6066 6.54615 28.4478C4.95259 26.9977 3.67958 25.2307 2.80868 23.2602C1.93778 21.2897 1.48819 19.1591 1.4887 17.0048ZM7.71199 29.4154C8.61721 27.7414 9.95826 26.3433 11.5932 25.3689C13.2282 24.3945 15.0962 23.88 16.9996 23.88C18.903 23.88 20.7711 24.3945 22.406 25.3689C24.041 26.3433 25.382 27.7414 26.2872 29.4154C23.6077 31.4241 20.3488 32.5099 16.9996 32.5099C13.6504 32.5099 10.3915 31.4241 7.71199 29.4154Z" fill="white" fill-opacity="0.8"/>
</g>
</svg>
