<svg width="202" height="57" viewBox="0 0 202 57" fill="none" xmlns="http://www.w3.org/2000/svg">
<path d="M0 13.875V43.125C0 45.8209 2.235 48 5 48H10V9H5C2.235 9 0 11.1791 0 13.875Z" fill="#276B88"/>
<path d="M31.8 0H19.2C16.8774 0 15 1.81993 15 4.07143V52.9286C15 55.1801 16.8774 57 19.2 57H31.8C34.1268 57 36 55.1801 36 52.9286V4.07143C36 1.81993 34.1226 0 31.8 0Z" fill="#276B88"/>
<path d="M197 9H192V48H197C199.765 48 202 45.8209 202 43.125V13.875C202 11.1791 199.76 9 197 9Z" fill="#276B88"/>
<path d="M182.8 0H170.2C167.873 0 166 1.81993 166 4.07143V52.9286C166 55.1801 167.873 57 170.2 57H182.8C185.123 57 187 55.1801 187 52.9286V4.07143C187 1.81993 185.118 0 182.8 0Z" fill="#276B88"/>
<path d="M160 17H42V39H160V17Z" fill="#276B88"/>
<path d="M50.3948 33L47.392 22.8182H50.4743L51.8664 29.0824H51.9459L53.5965 22.8182H56.0226L57.6732 29.1023H57.7528L59.1448 22.8182H62.2272L59.2243 33H56.5795L54.8493 27.3125H54.7698L53.0397 33H50.3948ZM72.3431 27.9091C72.3431 29.0426 72.1227 29.9988 71.6819 30.7777C71.2411 31.5533 70.6462 32.1416 69.8971 32.5426C69.1481 32.9403 68.3128 33.1392 67.3914 33.1392C66.4634 33.1392 65.6249 32.9387 64.8758 32.5376C64.1301 32.1333 63.5368 31.5433 63.096 30.7678C62.6585 29.9889 62.4397 29.036 62.4397 27.9091C62.4397 26.7756 62.6585 25.821 63.096 25.0455C63.5368 24.2666 64.1301 23.6783 64.8758 23.2805C65.6249 22.8795 66.4634 22.679 67.3914 22.679C68.3128 22.679 69.1481 22.8795 69.8971 23.2805C70.6462 23.6783 71.2411 24.2666 71.6819 25.0455C72.1227 25.821 72.3431 26.7756 72.3431 27.9091ZM69.4994 27.9091C69.4994 27.2992 69.4182 26.7855 69.2558 26.3679C69.0967 25.947 68.8597 25.6288 68.5448 25.4134C68.2333 25.1946 67.8488 25.0852 67.3914 25.0852C66.934 25.0852 66.5479 25.1946 66.233 25.4134C65.9215 25.6288 65.6845 25.947 65.5221 26.3679C65.363 26.7855 65.2835 27.2992 65.2835 27.9091C65.2835 28.5189 65.363 29.0343 65.5221 29.4553C65.6845 29.8729 65.9215 30.1911 66.233 30.4098C66.5479 30.6252 66.934 30.733 67.3914 30.733C67.8488 30.733 68.2333 30.6252 68.5448 30.4098C68.8597 30.1911 69.0967 29.8729 69.2558 29.4553C69.4182 29.0343 69.4994 28.5189 69.4994 27.9091ZM73.6221 33V22.8182H78.017C78.7726 22.8182 79.4339 22.9557 80.0006 23.2308C80.5674 23.5059 81.0082 23.902 81.3231 24.419C81.6379 24.9361 81.7954 25.5559 81.7954 26.2784C81.7954 27.0076 81.633 27.6224 81.3081 28.1229C80.9867 28.6233 80.5342 29.0012 79.9509 29.2564C79.3709 29.5116 78.6931 29.6392 77.9175 29.6392H75.2925V27.4915H77.3607C77.6855 27.4915 77.9623 27.4517 78.191 27.3722C78.423 27.2893 78.6003 27.1584 78.7229 26.9794C78.8489 26.8004 78.9118 26.5668 78.9118 26.2784C78.9118 25.9867 78.8489 25.7498 78.7229 25.5675C78.6003 25.3819 78.423 25.246 78.191 25.1598C77.9623 25.0703 77.6855 25.0256 77.3607 25.0256H76.3863V33H73.6221ZM79.588 28.3267L82.1334 33H79.1306L76.6448 28.3267H79.588ZM82.9736 33V22.8182H85.7378V26.9347H85.877L88.9395 22.8182H92.1611L88.7208 27.3523L92.2407 33H88.9395L86.6526 29.1818L85.7378 30.375V33H82.9736ZM102.203 27.9091C102.203 29.0426 101.982 29.9988 101.541 30.7777C101.1 31.5533 100.506 32.1416 99.7565 32.5426C99.0074 32.9403 98.1722 33.1392 97.2508 33.1392C96.3228 33.1392 95.4842 32.9387 94.7352 32.5376C93.9894 32.1333 93.3962 31.5433 92.9553 30.7678C92.5178 29.9889 92.2991 29.036 92.2991 27.9091C92.2991 26.7756 92.5178 25.821 92.9553 25.0455C93.3962 24.2666 93.9894 23.6783 94.7352 23.2805C95.4842 22.8795 96.3228 22.679 97.2508 22.679C98.1722 22.679 99.0074 22.8795 99.7565 23.2805C100.506 23.6783 101.1 24.2666 101.541 25.0455C101.982 25.821 102.203 26.7756 102.203 27.9091ZM99.3588 27.9091C99.3588 27.2992 99.2776 26.7855 99.1151 26.3679C98.9561 25.947 98.7191 25.6288 98.4042 25.4134C98.0927 25.1946 97.7082 25.0852 97.2508 25.0852C96.7934 25.0852 96.4073 25.1946 96.0924 25.4134C95.7809 25.6288 95.5439 25.947 95.3815 26.3679C95.2224 26.7855 95.1428 27.2992 95.1428 27.9091C95.1428 28.5189 95.2224 29.0343 95.3815 29.4553C95.5439 29.8729 95.7809 30.1911 96.0924 30.4098C96.4073 30.6252 96.7934 30.733 97.2508 30.733C97.7082 30.733 98.0927 30.6252 98.4042 30.4098C98.7191 30.1911 98.9561 29.8729 99.1151 29.4553C99.2776 29.0343 99.3588 28.5189 99.3588 27.9091ZM109.507 22.8182H112.271V29.3409C112.271 30.1165 112.086 30.7876 111.714 31.3544C111.347 31.9179 110.833 32.3537 110.173 32.6619C109.514 32.9669 108.748 33.1193 107.876 33.1193C106.998 33.1193 106.229 32.9669 105.57 32.6619C104.91 32.3537 104.396 31.9179 104.028 31.3544C103.664 30.7876 103.481 30.1165 103.481 29.3409V22.8182H106.246V29.1023C106.246 29.4171 106.315 29.6989 106.454 29.9474C106.594 30.1927 106.786 30.3849 107.031 30.5241C107.28 30.6634 107.561 30.733 107.876 30.733C108.195 30.733 108.476 30.6634 108.722 30.5241C108.967 30.3849 109.159 30.1927 109.298 29.9474C109.437 29.6989 109.507 29.4171 109.507 29.1023V22.8182ZM113.307 25.0455V22.8182H122.156V25.0455H119.093V33H116.369V25.0455H113.307ZM128.63 33H125.647L129.008 22.8182H132.786L136.147 33H133.164L130.937 25.6222H130.858L128.63 33ZM128.073 28.983H133.681V31.0511H128.073V28.983ZM137.128 33V22.8182H141.523C142.278 22.8182 142.94 22.9673 143.506 23.2656C144.073 23.5639 144.514 23.9832 144.829 24.5234C145.144 25.0637 145.301 25.6951 145.301 26.4176C145.301 27.1468 145.139 27.7782 144.814 28.3118C144.493 28.8454 144.04 29.2564 143.457 29.5447C142.877 29.8331 142.199 29.9773 141.423 29.9773H138.798V27.8295H140.867C141.191 27.8295 141.468 27.7732 141.697 27.6605C141.929 27.5445 142.106 27.3804 142.229 27.1683C142.355 26.9562 142.418 26.706 142.418 26.4176C142.418 26.1259 142.355 25.8774 142.229 25.6719C142.106 25.4631 141.929 25.304 141.697 25.1946C141.468 25.0819 141.191 25.0256 140.867 25.0256H139.892V33H137.128ZM146.315 33V22.8182H150.71C151.466 22.8182 152.127 22.9673 152.694 23.2656C153.261 23.5639 153.702 23.9832 154.016 24.5234C154.331 25.0637 154.489 25.6951 154.489 26.4176C154.489 27.1468 154.326 27.7782 154.002 28.3118C153.68 28.8454 153.228 29.2564 152.644 29.5447C152.064 29.8331 151.386 29.9773 150.611 29.9773H147.986V27.8295H150.054C150.379 27.8295 150.656 27.7732 150.884 27.6605C151.116 27.5445 151.294 27.3804 151.416 27.1683C151.542 26.9562 151.605 26.706 151.605 26.4176C151.605 26.1259 151.542 25.8774 151.416 25.6719C151.294 25.4631 151.116 25.304 150.884 25.1946C150.656 25.0819 150.379 25.0256 150.054 25.0256H149.08V33H146.315Z" fill="white"/>
</svg>
